<svg
  width="400"
  height="50"
  viewBox="0 0 262 24"
  fill="none"
  xmlns="http://www.w3.org/2000/svg"
  class="styles_logo__XBZfN"
>
  <path
    d="M95.3913 10.2635C95.3913 9.28489 96.3103 8.73591 97.7782 8.73591C99.5684 8.73591 100.416 10.1561 100.416 10.1561L102.182 8.96266C102.182 8.96266 100.69 6.67126 97.7782 6.67126C94.9736 6.67126 93.0761 8.10338 93.0761 10.3828C93.0761 14.9656 100.117 13.0681 100.117 15.8965C100.117 16.9945 99.079 17.6986 97.5872 17.6986C95.4271 17.6986 94.4127 16.0517 94.4127 16.0517L92.6226 17.448C92.6226 17.448 94.1382 19.7633 97.5753 19.7633C100.762 19.7633 102.504 18.0566 102.504 15.813C102.504 10.9915 95.3913 12.8055 95.3913 10.2635Z"
    fill="#CC290A"
  ></path>
  <path
    d="M106.765 10.2635C106.765 9.28489 107.684 8.73591 109.151 8.73591C110.942 8.73591 111.789 10.1561 111.789 10.1561L113.555 8.96266C113.555 8.96266 112.063 6.67126 109.151 6.67126C106.347 6.67126 104.449 8.10338 104.449 10.3828C104.449 14.9656 111.491 13.0681 111.491 15.8965C111.491 16.9945 110.452 17.6986 108.961 17.6986C106.8 17.6986 105.786 16.0517 105.786 16.0517L103.996 17.448C103.996 17.448 105.512 19.7633 108.949 19.7633C112.135 19.7633 113.877 18.0566 113.877 15.813C113.877 10.9915 106.765 12.8055 106.765 10.2635Z"
    fill="#CC290A"
  ></path>
  <path
    d="M20.7181 2.24365H18.4148V19.3814H20.7181V2.24365Z"
    fill="#CC290A"
  ></path>
  <path
    d="M141.35 2.24365H139.047V19.3814H141.35V2.24365Z"
    fill="#CC290A"
  ></path>
  <path
    d="M26.7211 6.99353H24.4177V19.3814H26.7211V6.99353Z"
    fill="#CC290A"
  ></path>
  <path
    d="M30.4326 19.4053H41.6032V17.1497H32.8434V11.8985H41.2451V9.64295H32.8434V4.49925H41.6032V2.24365H30.4326V19.4053Z"
    fill="#CC290A"
  ></path>
  <path
    d="M55.8529 6.99353H53.0841L49.468 11.445L45.8758 6.99353H42.9877L48.012 13.1994L42.9399 19.4053H45.6132L49.3606 14.8463L53.0841 19.4053H55.9126L50.8166 13.1159L55.8529 6.99353Z"
    fill="#CC290A"
  ></path>
  <path
    d="M63.2401 6.68323C61.259 6.68323 59.5882 7.49476 58.4783 8.62853C57.3087 9.8339 56.7478 11.4928 56.7478 13.6529C56.7478 17.3048 56.7478 24 56.7478 24H59.0631V17.8896C60.0417 19.0234 61.5693 19.7633 63.3236 19.7633C67.1426 19.7633 69.5892 16.8036 69.5892 13.2233C69.6011 9.64295 67.3097 6.68323 63.2401 6.68323ZM63.1685 17.6032C61.0203 17.6032 59.0034 16.0159 59.0034 13.2233C59.0034 10.6335 61.0203 8.84335 63.1685 8.84335C65.5673 8.84335 67.2978 10.5738 67.2978 13.2233C67.2858 15.8369 65.5554 17.6032 63.1685 17.6032Z"
    fill="#CC290A"
  ></path>
  <path
    d="M73.993 8.75983V7.00548H71.6658V19.4053H73.981V12.6146C73.981 10.1323 75.628 9.10592 78.349 9.10592V6.89807C76.0934 6.89807 74.6613 7.79315 73.993 8.75983Z"
    fill="#CC290A"
  ></path>
  <path
    d="M85.5217 6.68323C81.7862 6.68323 79.1726 9.47587 79.1726 13.1994C79.1726 17.0184 81.9175 19.7633 85.653 19.7633C87.7892 19.7633 89.6152 18.8682 90.7131 17.3287L88.9349 15.9443C88.2904 17.0423 87.109 17.6151 85.653 17.6151C83.5286 17.6151 81.834 16.1114 81.5595 14.0945H91.5485C91.5963 13.7484 91.5963 13.3665 91.5963 13.0681C91.6082 9.51167 89.0781 6.68323 85.5217 6.68323ZM81.5953 12.0656C81.8698 10.1561 83.3974 8.83141 85.5217 8.83141C87.5386 8.83141 88.8872 10.1442 89.1855 12.0656H81.5953Z"
    fill="#CC290A"
  ></path>
  <path
    d="M7.20835 2.23169L0 19.3814H2.57782L4.2367 15.2521H12.6743L14.3332 19.3814H16.9945L9.84584 2.23169H7.20835ZM5.14371 13.0323L8.47339 4.77371L11.8031 13.0323H5.14371Z"
    fill="#CC290A"
  ></path>
  <path
    d="M25.7663 0H25.3844C25.289 1.5634 24.0478 2.81651 22.4844 2.90005V3.28195C24.0478 3.36549 25.3009 4.6186 25.3844 6.182H25.7663C25.8618 4.6186 27.1149 3.37742 28.6664 3.29388V2.91199C27.103 2.82845 25.8499 1.5634 25.7663 0Z"
    fill="#CC290A"
  ></path>
  <path
    d="M130.419 17.5077C126.695 17.5077 123.879 14.6315 123.879 10.8245C123.879 7.01739 126.683 4.14121 130.419 4.14121C133.641 4.14121 135.18 6.2536 135.18 6.2536L136.899 4.65439C135.216 2.74489 132.471 1.88562 130.419 1.88562C126.504 1.88562 121.48 4.59472 121.48 10.8245C121.48 17.0542 126.659 19.7633 130.419 19.7633C132.292 19.7633 135.097 19.0353 136.899 16.9826L135.049 15.5505C135.049 15.5385 133.617 17.5077 130.419 17.5077Z"
    fill="#CC290A"
  ></path>
  <path
    d="M150.97 9.58325C147.903 8.80752 146.554 8.28241 146.554 6.63547C146.554 5.17947 148.07 4.11732 150.385 4.11732C153.249 4.11732 154.562 6.2297 154.562 6.2297L156.471 4.94079C156.471 4.94079 154.598 1.87366 150.576 1.87366C147.127 1.87366 144.203 3.60414 144.203 6.92189C144.203 9.96515 146.864 11.0273 149.669 11.6718C152.473 12.3162 154.55 12.9129 154.55 14.6792C154.55 16.4336 152.808 17.4957 150.206 17.4957C146.888 17.4957 145.42 15.1327 145.42 15.1327L143.487 16.6365C143.487 16.6365 145.528 19.7513 150.218 19.7513C153.858 19.7513 156.937 18.0567 156.937 14.5718C156.925 11.1825 154.049 10.359 150.97 9.58325Z"
    fill="#CC290A"
  ></path>
  <mask
    id="path-15-outside-1_3215_1769"
    maskUnits="userSpaceOnUse"
    x="163.515"
    y="1.64941"
    width="99"
    height="19"
    fill="black"
  >
    <rect fill="white" x="163.515" y="1.64941" width="99" height="19"></rect>
    <path
      d="M171.026 7.43014V9.00274H164.515V7.43014H171.026ZM166.465 19.5078V5.76318C166.465 5.07123 166.628 4.4946 166.953 4.03331C167.278 3.57201 167.7 3.22604 168.219 2.99539C168.738 2.76474 169.285 2.64941 169.862 2.64941C170.318 2.64941 170.69 2.68611 170.979 2.7595C171.267 2.83289 171.482 2.90103 171.623 2.96394L171.089 4.56799C170.994 4.53654 170.863 4.49723 170.695 4.45005C170.533 4.40287 170.318 4.37928 170.051 4.37928C169.437 4.37928 168.994 4.53392 168.722 4.8432C168.455 5.15248 168.321 5.60591 168.321 6.2035V19.5078H166.465Z"
    ></path>
    <path
      d="M177.62 19.7594C176.53 19.7594 175.573 19.4999 174.75 18.9809C173.933 18.462 173.293 17.7359 172.832 16.8029C172.376 15.8698 172.148 14.7795 172.148 13.5318C172.148 12.2738 172.376 11.1756 172.832 10.2372C173.293 9.29892 173.933 8.57028 174.75 8.05132C175.573 7.53236 176.53 7.27288 177.62 7.27288C178.711 7.27288 179.665 7.53236 180.483 8.05132C181.306 8.57028 181.945 9.29892 182.401 10.2372C182.862 11.1756 183.093 12.2738 183.093 13.5318C183.093 14.7795 182.862 15.8698 182.401 16.8029C181.945 17.7359 181.306 18.462 180.483 18.9809C179.665 19.4999 178.711 19.7594 177.62 19.7594ZM177.62 18.0924C178.449 18.0924 179.13 17.8801 179.665 17.4555C180.2 17.0309 180.595 16.4726 180.852 15.7807C181.109 15.0887 181.237 14.3391 181.237 13.5318C181.237 12.7246 181.109 11.9723 180.852 11.2752C180.595 10.578 180.2 10.0145 179.665 9.58461C179.13 9.15476 178.449 8.93984 177.62 8.93984C176.792 8.93984 176.111 9.15476 175.576 9.58461C175.041 10.0145 174.646 10.578 174.389 11.2752C174.132 11.9723 174.003 12.7246 174.003 13.5318C174.003 14.3391 174.132 15.0887 174.389 15.7807C174.646 16.4726 175.041 17.0309 175.576 17.4555C176.111 17.8801 176.792 18.0924 177.62 18.0924Z"
    ></path>
    <path
      d="M185.511 19.5078V7.43014H187.303V9.25436H187.429C187.649 8.65677 188.048 8.17188 188.624 7.7997C189.201 7.42752 189.851 7.24142 190.574 7.24142C190.711 7.24142 190.881 7.24404 191.085 7.24929C191.29 7.25453 191.445 7.26239 191.549 7.27288V9.16C191.487 9.14428 191.342 9.12069 191.117 9.08924C190.897 9.05254 190.664 9.0342 190.417 9.0342C189.83 9.0342 189.306 9.15738 188.845 9.40376C188.388 9.64489 188.027 9.98038 187.759 10.4102C187.497 10.8348 187.366 11.3197 187.366 11.8649V19.5078H185.511Z"
    ></path>
    <path
      d="M207.701 10.135L206.034 10.6068C205.929 10.329 205.775 10.059 205.57 9.79691C205.371 9.52957 205.099 9.3094 204.753 9.13641C204.407 8.96343 203.964 8.87694 203.424 8.87694C202.685 8.87694 202.069 9.0473 201.576 9.38803C201.088 9.72352 200.845 10.1507 200.845 10.6697C200.845 11.131 201.012 11.4953 201.348 11.7627C201.683 12.03 202.208 12.2528 202.921 12.431L204.713 12.8714C205.793 13.1335 206.598 13.5345 207.127 14.0744C207.657 14.6091 207.921 15.2984 207.921 16.1424C207.921 16.8343 207.722 17.4529 207.324 17.9981C206.931 18.5432 206.38 18.9731 205.673 19.2876C204.965 19.6021 204.142 19.7594 203.204 19.7594C201.972 19.7594 200.952 19.492 200.145 18.9573C199.338 18.4227 198.827 17.6416 198.612 16.6142L200.373 16.1738C200.541 16.8238 200.858 17.3113 201.324 17.6364C201.796 17.9614 202.412 18.1239 203.172 18.1239C204.037 18.1239 204.724 17.9404 205.232 17.5734C205.746 17.2013 206.003 16.7557 206.003 16.2367C206.003 15.8174 205.856 15.4662 205.562 15.1831C205.269 14.8948 204.818 14.6799 204.21 14.5383L202.197 14.0665C201.091 13.8044 200.279 13.3982 199.76 12.8478C199.246 12.2921 198.989 11.5975 198.989 10.7641C198.989 10.0826 199.18 9.47977 199.563 8.95557C199.951 8.43136 200.478 8.01986 201.143 7.72107C201.814 7.42227 202.575 7.27288 203.424 7.27288C204.619 7.27288 205.557 7.53498 206.239 8.05918C206.925 8.58338 207.413 9.27533 207.701 10.135Z"
    ></path>
    <path
      d="M215.363 19.7594C214.2 19.7594 213.196 19.5025 212.352 18.9888C211.513 18.4698 210.866 17.7464 210.41 16.8186C209.959 15.8855 209.733 14.8004 209.733 13.5633C209.733 12.3262 209.959 11.2358 210.41 10.2923C210.866 9.34348 211.5 8.60435 212.313 8.07491C213.13 7.54022 214.084 7.27288 215.175 7.27288C215.804 7.27288 216.425 7.37772 217.038 7.5874C217.652 7.79708 218.21 8.13781 218.713 8.60959C219.216 9.07613 219.617 9.69469 219.916 10.4653C220.215 11.2358 220.364 12.1846 220.364 13.3117V14.098H211.054V12.4939H218.477C218.477 11.8125 218.341 11.2044 218.068 10.6697C217.801 10.135 217.418 9.71304 216.92 9.40376C216.427 9.09448 215.846 8.93984 215.175 8.93984C214.436 8.93984 213.796 9.12331 213.256 9.49025C212.721 9.85195 212.31 10.3237 212.022 10.9056C211.733 11.4875 211.589 12.1113 211.589 12.777V13.8464C211.589 14.7585 211.746 15.5317 212.061 16.166C212.381 16.795 212.824 17.2747 213.39 17.6049C213.956 17.9299 214.614 18.0924 215.363 18.0924C215.851 18.0924 216.291 18.0243 216.684 17.888C217.083 17.7464 217.426 17.5368 217.714 17.2589C218.003 16.9759 218.226 16.6246 218.383 16.2053L220.176 16.7085C219.987 17.3166 219.67 17.8513 219.224 18.3126C218.779 18.7686 218.228 19.1251 217.573 19.3819C216.918 19.6336 216.181 19.7594 215.363 19.7594Z"
    ></path>
    <path d="M224.628 3.40427V19.5078H222.772V3.40427H224.628Z"></path>
    <path d="M229.467 3.40427V19.5078H227.611V3.40427H229.467Z"></path>
    <path
      d="M237.514 19.7594C236.351 19.7594 235.347 19.5025 234.503 18.9888C233.664 18.4698 233.017 17.7464 232.561 16.8186C232.11 15.8855 231.884 14.8004 231.884 13.5633C231.884 12.3262 232.11 11.2358 232.561 10.2923C233.017 9.34348 233.651 8.60435 234.463 8.07491C235.281 7.54022 236.235 7.27288 237.326 7.27288C237.955 7.27288 238.576 7.37772 239.189 7.5874C239.802 7.79708 240.361 8.13781 240.864 8.60959C241.367 9.07613 241.768 9.69469 242.067 10.4653C242.366 11.2358 242.515 12.1846 242.515 13.3117V14.098H233.205V12.4939H240.628C240.628 11.8125 240.492 11.2044 240.219 10.6697C239.952 10.135 239.569 9.71304 239.071 9.40376C238.578 9.09448 237.997 8.93984 237.326 8.93984C236.586 8.93984 235.947 9.12331 235.407 9.49025C234.872 9.85195 234.461 10.3237 234.173 10.9056C233.884 11.4875 233.74 12.1113 233.74 12.777V13.8464C233.74 14.7585 233.897 15.5317 234.212 16.166C234.532 16.795 234.975 17.2747 235.541 17.6049C236.107 17.9299 236.765 18.0924 237.514 18.0924C238.002 18.0924 238.442 18.0243 238.835 17.888C239.234 17.7464 239.577 17.5368 239.865 17.2589C240.154 16.9759 240.376 16.6246 240.534 16.2053L242.326 16.7085C242.138 17.3166 241.821 17.8513 241.375 18.3126C240.929 18.7686 240.379 19.1251 239.724 19.3819C239.069 19.6336 238.332 19.7594 237.514 19.7594Z"
    ></path>
    <path
      d="M244.923 19.5078V7.43014H246.716V9.25436H246.841C247.062 8.65677 247.46 8.17188 248.037 7.7997C248.613 7.42752 249.263 7.24142 249.987 7.24142C250.123 7.24142 250.293 7.24404 250.498 7.24929C250.702 7.25453 250.857 7.26239 250.962 7.27288V9.16C250.899 9.14428 250.755 9.12069 250.529 9.08924C250.309 9.05254 250.076 9.0342 249.829 9.0342C249.242 9.0342 248.718 9.15738 248.257 9.40376C247.801 9.64489 247.439 9.98038 247.172 10.4102C246.91 10.8348 246.779 11.3197 246.779 11.8649V19.5078H244.923Z"
    ></path>
    <path
      d="M261.301 10.135L259.634 10.6068C259.529 10.329 259.375 10.059 259.17 9.79691C258.971 9.52957 258.698 9.3094 258.353 9.13641C258.007 8.96343 257.564 8.87694 257.024 8.87694C256.285 8.87694 255.669 9.0473 255.176 9.38803C254.688 9.72352 254.445 10.1507 254.445 10.6697C254.445 11.131 254.612 11.4953 254.948 11.7627C255.283 12.03 255.808 12.2528 256.52 12.431L258.313 12.8714C259.393 13.1335 260.198 13.5345 260.727 14.0744C261.257 14.6091 261.521 15.2984 261.521 16.1424C261.521 16.8343 261.322 17.4529 260.924 17.9981C260.531 18.5432 259.98 18.9731 259.272 19.2876C258.565 19.6021 257.742 19.7594 256.803 19.7594C255.572 19.7594 254.552 19.492 253.745 18.9573C252.937 18.4227 252.426 17.6416 252.211 16.6142L253.973 16.1738C254.141 16.8238 254.458 17.3113 254.924 17.6364C255.396 17.9614 256.012 18.1239 256.772 18.1239C257.637 18.1239 258.324 17.9404 258.832 17.5734C259.346 17.2013 259.603 16.7557 259.603 16.2367C259.603 15.8174 259.456 15.4662 259.162 15.1831C258.869 14.8948 258.418 14.6799 257.81 14.5383L255.797 14.0665C254.691 13.8044 253.878 13.3982 253.359 12.8478C252.846 12.2921 252.589 11.5975 252.589 10.7641C252.589 10.0826 252.78 9.47977 253.163 8.95557C253.551 8.43136 254.078 8.01986 254.743 7.72107C255.414 7.42227 256.174 7.27288 257.024 7.27288C258.219 7.27288 259.157 7.53498 259.839 8.05918C260.525 8.58338 261.013 9.27533 261.301 10.135Z"
    ></path>
  </mask>
  <path
    d="M171.026 7.43014V9.00274H164.515V7.43014H171.026ZM166.465 19.5078V5.76318C166.465 5.07123 166.628 4.4946 166.953 4.03331C167.278 3.57201 167.7 3.22604 168.219 2.99539C168.738 2.76474 169.285 2.64941 169.862 2.64941C170.318 2.64941 170.69 2.68611 170.979 2.7595C171.267 2.83289 171.482 2.90103 171.623 2.96394L171.089 4.56799C170.994 4.53654 170.863 4.49723 170.695 4.45005C170.533 4.40287 170.318 4.37928 170.051 4.37928C169.437 4.37928 168.994 4.53392 168.722 4.8432C168.455 5.15248 168.321 5.60591 168.321 6.2035V19.5078H166.465Z"
    fill="#222222"
    fill-opacity="0.64"
  ></path>
  <path
    d="M177.62 19.7594C176.53 19.7594 175.573 19.4999 174.75 18.9809C173.933 18.462 173.293 17.7359 172.832 16.8029C172.376 15.8698 172.148 14.7795 172.148 13.5318C172.148 12.2738 172.376 11.1756 172.832 10.2372C173.293 9.29892 173.933 8.57028 174.75 8.05132C175.573 7.53236 176.53 7.27288 177.62 7.27288C178.711 7.27288 179.665 7.53236 180.483 8.05132C181.306 8.57028 181.945 9.29892 182.401 10.2372C182.862 11.1756 183.093 12.2738 183.093 13.5318C183.093 14.7795 182.862 15.8698 182.401 16.8029C181.945 17.7359 181.306 18.462 180.483 18.9809C179.665 19.4999 178.711 19.7594 177.62 19.7594ZM177.62 18.0924C178.449 18.0924 179.13 17.8801 179.665 17.4555C180.2 17.0309 180.595 16.4726 180.852 15.7807C181.109 15.0887 181.237 14.3391 181.237 13.5318C181.237 12.7246 181.109 11.9723 180.852 11.2752C180.595 10.578 180.2 10.0145 179.665 9.58461C179.13 9.15476 178.449 8.93984 177.62 8.93984C176.792 8.93984 176.111 9.15476 175.576 9.58461C175.041 10.0145 174.646 10.578 174.389 11.2752C174.132 11.9723 174.003 12.7246 174.003 13.5318C174.003 14.3391 174.132 15.0887 174.389 15.7807C174.646 16.4726 175.041 17.0309 175.576 17.4555C176.111 17.8801 176.792 18.0924 177.62 18.0924Z"
    fill="#222222"
    fill-opacity="0.64"
  ></path>
  <path
    d="M185.511 19.5078V7.43014H187.303V9.25436H187.429C187.649 8.65677 188.048 8.17188 188.624 7.7997C189.201 7.42752 189.851 7.24142 190.574 7.24142C190.711 7.24142 190.881 7.24404 191.085 7.24929C191.29 7.25453 191.445 7.26239 191.549 7.27288V9.16C191.487 9.14428 191.342 9.12069 191.117 9.08924C190.897 9.05254 190.664 9.0342 190.417 9.0342C189.83 9.0342 189.306 9.15738 188.845 9.40376C188.388 9.64489 188.027 9.98038 187.759 10.4102C187.497 10.8348 187.366 11.3197 187.366 11.8649V19.5078H185.511Z"
    fill="#222222"
    fill-opacity="0.64"
  ></path>
  <path
    d="M207.701 10.135L206.034 10.6068C205.929 10.329 205.775 10.059 205.57 9.79691C205.371 9.52957 205.099 9.3094 204.753 9.13641C204.407 8.96343 203.964 8.87694 203.424 8.87694C202.685 8.87694 202.069 9.0473 201.576 9.38803C201.088 9.72352 200.845 10.1507 200.845 10.6697C200.845 11.131 201.012 11.4953 201.348 11.7627C201.683 12.03 202.208 12.2528 202.921 12.431L204.713 12.8714C205.793 13.1335 206.598 13.5345 207.127 14.0744C207.657 14.6091 207.921 15.2984 207.921 16.1424C207.921 16.8343 207.722 17.4529 207.324 17.9981C206.931 18.5432 206.38 18.9731 205.673 19.2876C204.965 19.6021 204.142 19.7594 203.204 19.7594C201.972 19.7594 200.952 19.492 200.145 18.9573C199.338 18.4227 198.827 17.6416 198.612 16.6142L200.373 16.1738C200.541 16.8238 200.858 17.3113 201.324 17.6364C201.796 17.9614 202.412 18.1239 203.172 18.1239C204.037 18.1239 204.724 17.9404 205.232 17.5734C205.746 17.2013 206.003 16.7557 206.003 16.2367C206.003 15.8174 205.856 15.4662 205.562 15.1831C205.269 14.8948 204.818 14.6799 204.21 14.5383L202.197 14.0665C201.091 13.8044 200.279 13.3982 199.76 12.8478C199.246 12.2921 198.989 11.5975 198.989 10.7641C198.989 10.0826 199.18 9.47977 199.563 8.95557C199.951 8.43136 200.478 8.01986 201.143 7.72107C201.814 7.42227 202.575 7.27288 203.424 7.27288C204.619 7.27288 205.557 7.53498 206.239 8.05918C206.925 8.58338 207.413 9.27533 207.701 10.135Z"
    fill="#222222"
    fill-opacity="0.64"
  ></path>
  <path
    d="M215.363 19.7594C214.2 19.7594 213.196 19.5025 212.352 18.9888C211.513 18.4698 210.866 17.7464 210.41 16.8186C209.959 15.8855 209.733 14.8004 209.733 13.5633C209.733 12.3262 209.959 11.2358 210.41 10.2923C210.866 9.34348 211.5 8.60435 212.313 8.07491C213.13 7.54022 214.084 7.27288 215.175 7.27288C215.804 7.27288 216.425 7.37772 217.038 7.5874C217.652 7.79708 218.21 8.13781 218.713 8.60959C219.216 9.07613 219.617 9.69469 219.916 10.4653C220.215 11.2358 220.364 12.1846 220.364 13.3117V14.098H211.054V12.4939H218.477C218.477 11.8125 218.341 11.2044 218.068 10.6697C217.801 10.135 217.418 9.71304 216.92 9.40376C216.427 9.09448 215.846 8.93984 215.175 8.93984C214.436 8.93984 213.796 9.12331 213.256 9.49025C212.721 9.85195 212.31 10.3237 212.022 10.9056C211.733 11.4875 211.589 12.1113 211.589 12.777V13.8464C211.589 14.7585 211.746 15.5317 212.061 16.166C212.381 16.795 212.824 17.2747 213.39 17.6049C213.956 17.9299 214.614 18.0924 215.363 18.0924C215.851 18.0924 216.291 18.0243 216.684 17.888C217.083 17.7464 217.426 17.5368 217.714 17.2589C218.003 16.9759 218.226 16.6246 218.383 16.2053L220.176 16.7085C219.987 17.3166 219.67 17.8513 219.224 18.3126C218.779 18.7686 218.228 19.1251 217.573 19.3819C216.918 19.6336 216.181 19.7594 215.363 19.7594Z"
    fill="#222222"
    fill-opacity="0.64"
  ></path>
  <path
    d="M224.628 3.40427V19.5078H222.772V3.40427H224.628Z"
    fill="#222222"
    fill-opacity="0.64"
  ></path>
  <path
    d="M229.467 3.40427V19.5078H227.611V3.40427H229.467Z"
    fill="#222222"
    fill-opacity="0.64"
  ></path>
  <path
    d="M237.514 19.7594C236.351 19.7594 235.347 19.5025 234.503 18.9888C233.664 18.4698 233.017 17.7464 232.561 16.8186C232.11 15.8855 231.884 14.8004 231.884 13.5633C231.884 12.3262 232.11 11.2358 232.561 10.2923C233.017 9.34348 233.651 8.60435 234.463 8.07491C235.281 7.54022 236.235 7.27288 237.326 7.27288C237.955 7.27288 238.576 7.37772 239.189 7.5874C239.802 7.79708 240.361 8.13781 240.864 8.60959C241.367 9.07613 241.768 9.69469 242.067 10.4653C242.366 11.2358 242.515 12.1846 242.515 13.3117V14.098H233.205V12.4939H240.628C240.628 11.8125 240.492 11.2044 240.219 10.6697C239.952 10.135 239.569 9.71304 239.071 9.40376C238.578 9.09448 237.997 8.93984 237.326 8.93984C236.586 8.93984 235.947 9.12331 235.407 9.49025C234.872 9.85195 234.461 10.3237 234.173 10.9056C233.884 11.4875 233.74 12.1113 233.74 12.777V13.8464C233.74 14.7585 233.897 15.5317 234.212 16.166C234.532 16.795 234.975 17.2747 235.541 17.6049C236.107 17.9299 236.765 18.0924 237.514 18.0924C238.002 18.0924 238.442 18.0243 238.835 17.888C239.234 17.7464 239.577 17.5368 239.865 17.2589C240.154 16.9759 240.376 16.6246 240.534 16.2053L242.326 16.7085C242.138 17.3166 241.821 17.8513 241.375 18.3126C240.929 18.7686 240.379 19.1251 239.724 19.3819C239.069 19.6336 238.332 19.7594 237.514 19.7594Z"
    fill="#222222"
    fill-opacity="0.64"
  ></path>
  <path
    d="M244.923 19.5078V7.43014H246.716V9.25436H246.841C247.062 8.65677 247.46 8.17188 248.037 7.7997C248.613 7.42752 249.263 7.24142 249.987 7.24142C250.123 7.24142 250.293 7.24404 250.498 7.24929C250.702 7.25453 250.857 7.26239 250.962 7.27288V9.16C250.899 9.14428 250.755 9.12069 250.529 9.08924C250.309 9.05254 250.076 9.0342 249.829 9.0342C249.242 9.0342 248.718 9.15738 248.257 9.40376C247.801 9.64489 247.439 9.98038 247.172 10.4102C246.91 10.8348 246.779 11.3197 246.779 11.8649V19.5078H244.923Z"
    fill="#222222"
    fill-opacity="0.64"
  ></path>
  <path
    d="M261.301 10.135L259.634 10.6068C259.529 10.329 259.375 10.059 259.17 9.79691C258.971 9.52957 258.698 9.3094 258.353 9.13641C258.007 8.96343 257.564 8.87694 257.024 8.87694C256.285 8.87694 255.669 9.0473 255.176 9.38803C254.688 9.72352 254.445 10.1507 254.445 10.6697C254.445 11.131 254.612 11.4953 254.948 11.7627C255.283 12.03 255.808 12.2528 256.52 12.431L258.313 12.8714C259.393 13.1335 260.198 13.5345 260.727 14.0744C261.257 14.6091 261.521 15.2984 261.521 16.1424C261.521 16.8343 261.322 17.4529 260.924 17.9981C260.531 18.5432 259.98 18.9731 259.272 19.2876C258.565 19.6021 257.742 19.7594 256.803 19.7594C255.572 19.7594 254.552 19.492 253.745 18.9573C252.937 18.4227 252.426 17.6416 252.211 16.6142L253.973 16.1738C254.141 16.8238 254.458 17.3113 254.924 17.6364C255.396 17.9614 256.012 18.1239 256.772 18.1239C257.637 18.1239 258.324 17.9404 258.832 17.5734C259.346 17.2013 259.603 16.7557 259.603 16.2367C259.603 15.8174 259.456 15.4662 259.162 15.1831C258.869 14.8948 258.418 14.6799 257.81 14.5383L255.797 14.0665C254.691 13.8044 253.878 13.3982 253.359 12.8478C252.846 12.2921 252.589 11.5975 252.589 10.7641C252.589 10.0826 252.78 9.47977 253.163 8.95557C253.551 8.43136 254.078 8.01986 254.743 7.72107C255.414 7.42227 256.174 7.27288 257.024 7.27288C258.219 7.27288 259.157 7.53498 259.839 8.05918C260.525 8.58338 261.013 9.27533 261.301 10.135Z"
    fill="#222222"
    fill-opacity="0.64"
  ></path>
  <path
    d="M171.026 7.43014V9.00274H164.515V7.43014H171.026ZM166.465 19.5078V5.76318C166.465 5.07123 166.628 4.4946 166.953 4.03331C167.278 3.57201 167.7 3.22604 168.219 2.99539C168.738 2.76474 169.285 2.64941 169.862 2.64941C170.318 2.64941 170.69 2.68611 170.979 2.7595C171.267 2.83289 171.482 2.90103 171.623 2.96394L171.089 4.56799C170.994 4.53654 170.863 4.49723 170.695 4.45005C170.533 4.40287 170.318 4.37928 170.051 4.37928C169.437 4.37928 168.994 4.53392 168.722 4.8432C168.455 5.15248 168.321 5.60591 168.321 6.2035V19.5078H166.465Z"
    stroke="#222222"
    stroke-opacity="0.64"
    stroke-width="0.358031"
    mask="url(#path-15-outside-1_3215_1769)"
  ></path>
  <path
    d="M177.62 19.7594C176.53 19.7594 175.573 19.4999 174.75 18.9809C173.933 18.462 173.293 17.7359 172.832 16.8029C172.376 15.8698 172.148 14.7795 172.148 13.5318C172.148 12.2738 172.376 11.1756 172.832 10.2372C173.293 9.29892 173.933 8.57028 174.75 8.05132C175.573 7.53236 176.53 7.27288 177.62 7.27288C178.711 7.27288 179.665 7.53236 180.483 8.05132C181.306 8.57028 181.945 9.29892 182.401 10.2372C182.862 11.1756 183.093 12.2738 183.093 13.5318C183.093 14.7795 182.862 15.8698 182.401 16.8029C181.945 17.7359 181.306 18.462 180.483 18.9809C179.665 19.4999 178.711 19.7594 177.62 19.7594ZM177.62 18.0924C178.449 18.0924 179.13 17.8801 179.665 17.4555C180.2 17.0309 180.595 16.4726 180.852 15.7807C181.109 15.0887 181.237 14.3391 181.237 13.5318C181.237 12.7246 181.109 11.9723 180.852 11.2752C180.595 10.578 180.2 10.0145 179.665 9.58461C179.13 9.15476 178.449 8.93984 177.62 8.93984C176.792 8.93984 176.111 9.15476 175.576 9.58461C175.041 10.0145 174.646 10.578 174.389 11.2752C174.132 11.9723 174.003 12.7246 174.003 13.5318C174.003 14.3391 174.132 15.0887 174.389 15.7807C174.646 16.4726 175.041 17.0309 175.576 17.4555C176.111 17.8801 176.792 18.0924 177.62 18.0924Z"
    stroke="#222222"
    stroke-opacity="0.64"
    stroke-width="0.358031"
    mask="url(#path-15-outside-1_3215_1769)"
  ></path>
  <path
    d="M185.511 19.5078V7.43014H187.303V9.25436H187.429C187.649 8.65677 188.048 8.17188 188.624 7.7997C189.201 7.42752 189.851 7.24142 190.574 7.24142C190.711 7.24142 190.881 7.24404 191.085 7.24929C191.29 7.25453 191.445 7.26239 191.549 7.27288V9.16C191.487 9.14428 191.342 9.12069 191.117 9.08924C190.897 9.05254 190.664 9.0342 190.417 9.0342C189.83 9.0342 189.306 9.15738 188.845 9.40376C188.388 9.64489 188.027 9.98038 187.759 10.4102C187.497 10.8348 187.366 11.3197 187.366 11.8649V19.5078H185.511Z"
    stroke="#222222"
    stroke-opacity="0.64"
    stroke-width="0.358031"
    mask="url(#path-15-outside-1_3215_1769)"
  ></path>
  <path
    d="M207.701 10.135L206.034 10.6068C205.929 10.329 205.775 10.059 205.57 9.79691C205.371 9.52957 205.099 9.3094 204.753 9.13641C204.407 8.96343 203.964 8.87694 203.424 8.87694C202.685 8.87694 202.069 9.0473 201.576 9.38803C201.088 9.72352 200.845 10.1507 200.845 10.6697C200.845 11.131 201.012 11.4953 201.348 11.7627C201.683 12.03 202.208 12.2528 202.921 12.431L204.713 12.8714C205.793 13.1335 206.598 13.5345 207.127 14.0744C207.657 14.6091 207.921 15.2984 207.921 16.1424C207.921 16.8343 207.722 17.4529 207.324 17.9981C206.931 18.5432 206.38 18.9731 205.673 19.2876C204.965 19.6021 204.142 19.7594 203.204 19.7594C201.972 19.7594 200.952 19.492 200.145 18.9573C199.338 18.4227 198.827 17.6416 198.612 16.6142L200.373 16.1738C200.541 16.8238 200.858 17.3113 201.324 17.6364C201.796 17.9614 202.412 18.1239 203.172 18.1239C204.037 18.1239 204.724 17.9404 205.232 17.5734C205.746 17.2013 206.003 16.7557 206.003 16.2367C206.003 15.8174 205.856 15.4662 205.562 15.1831C205.269 14.8948 204.818 14.6799 204.21 14.5383L202.197 14.0665C201.091 13.8044 200.279 13.3982 199.76 12.8478C199.246 12.2921 198.989 11.5975 198.989 10.7641C198.989 10.0826 199.18 9.47977 199.563 8.95557C199.951 8.43136 200.478 8.01986 201.143 7.72107C201.814 7.42227 202.575 7.27288 203.424 7.27288C204.619 7.27288 205.557 7.53498 206.239 8.05918C206.925 8.58338 207.413 9.27533 207.701 10.135Z"
    stroke="#222222"
    stroke-opacity="0.64"
    stroke-width="0.358031"
    mask="url(#path-15-outside-1_3215_1769)"
  ></path>
  <path
    d="M215.363 19.7594C214.2 19.7594 213.196 19.5025 212.352 18.9888C211.513 18.4698 210.866 17.7464 210.41 16.8186C209.959 15.8855 209.733 14.8004 209.733 13.5633C209.733 12.3262 209.959 11.2358 210.41 10.2923C210.866 9.34348 211.5 8.60435 212.313 8.07491C213.13 7.54022 214.084 7.27288 215.175 7.27288C215.804 7.27288 216.425 7.37772 217.038 7.5874C217.652 7.79708 218.21 8.13781 218.713 8.60959C219.216 9.07613 219.617 9.69469 219.916 10.4653C220.215 11.2358 220.364 12.1846 220.364 13.3117V14.098H211.054V12.4939H218.477C218.477 11.8125 218.341 11.2044 218.068 10.6697C217.801 10.135 217.418 9.71304 216.92 9.40376C216.427 9.09448 215.846 8.93984 215.175 8.93984C214.436 8.93984 213.796 9.12331 213.256 9.49025C212.721 9.85195 212.31 10.3237 212.022 10.9056C211.733 11.4875 211.589 12.1113 211.589 12.777V13.8464C211.589 14.7585 211.746 15.5317 212.061 16.166C212.381 16.795 212.824 17.2747 213.39 17.6049C213.956 17.9299 214.614 18.0924 215.363 18.0924C215.851 18.0924 216.291 18.0243 216.684 17.888C217.083 17.7464 217.426 17.5368 217.714 17.2589C218.003 16.9759 218.226 16.6246 218.383 16.2053L220.176 16.7085C219.987 17.3166 219.67 17.8513 219.224 18.3126C218.779 18.7686 218.228 19.1251 217.573 19.3819C216.918 19.6336 216.181 19.7594 215.363 19.7594Z"
    stroke="#222222"
    stroke-opacity="0.64"
    stroke-width="0.358031"
    mask="url(#path-15-outside-1_3215_1769)"
  ></path>
  <path
    d="M224.628 3.40427V19.5078H222.772V3.40427H224.628Z"
    stroke="#222222"
    stroke-opacity="0.64"
    stroke-width="0.358031"
    mask="url(#path-15-outside-1_3215_1769)"
  ></path>
  <path
    d="M229.467 3.40427V19.5078H227.611V3.40427H229.467Z"
    stroke="#222222"
    stroke-opacity="0.64"
    stroke-width="0.358031"
    mask="url(#path-15-outside-1_3215_1769)"
  ></path>
  <path
    d="M237.514 19.7594C236.351 19.7594 235.347 19.5025 234.503 18.9888C233.664 18.4698 233.017 17.7464 232.561 16.8186C232.11 15.8855 231.884 14.8004 231.884 13.5633C231.884 12.3262 232.11 11.2358 232.561 10.2923C233.017 9.34348 233.651 8.60435 234.463 8.07491C235.281 7.54022 236.235 7.27288 237.326 7.27288C237.955 7.27288 238.576 7.37772 239.189 7.5874C239.802 7.79708 240.361 8.13781 240.864 8.60959C241.367 9.07613 241.768 9.69469 242.067 10.4653C242.366 11.2358 242.515 12.1846 242.515 13.3117V14.098H233.205V12.4939H240.628C240.628 11.8125 240.492 11.2044 240.219 10.6697C239.952 10.135 239.569 9.71304 239.071 9.40376C238.578 9.09448 237.997 8.93984 237.326 8.93984C236.586 8.93984 235.947 9.12331 235.407 9.49025C234.872 9.85195 234.461 10.3237 234.173 10.9056C233.884 11.4875 233.74 12.1113 233.74 12.777V13.8464C233.74 14.7585 233.897 15.5317 234.212 16.166C234.532 16.795 234.975 17.2747 235.541 17.6049C236.107 17.9299 236.765 18.0924 237.514 18.0924C238.002 18.0924 238.442 18.0243 238.835 17.888C239.234 17.7464 239.577 17.5368 239.865 17.2589C240.154 16.9759 240.376 16.6246 240.534 16.2053L242.326 16.7085C242.138 17.3166 241.821 17.8513 241.375 18.3126C240.929 18.7686 240.379 19.1251 239.724 19.3819C239.069 19.6336 238.332 19.7594 237.514 19.7594Z"
    stroke="#222222"
    stroke-opacity="0.64"
    stroke-width="0.358031"
    mask="url(#path-15-outside-1_3215_1769)"
  ></path>
  <path
    d="M244.923 19.5078V7.43014H246.716V9.25436H246.841C247.062 8.65677 247.46 8.17188 248.037 7.7997C248.613 7.42752 249.263 7.24142 249.987 7.24142C250.123 7.24142 250.293 7.24404 250.498 7.24929C250.702 7.25453 250.857 7.26239 250.962 7.27288V9.16C250.899 9.14428 250.755 9.12069 250.529 9.08924C250.309 9.05254 250.076 9.0342 249.829 9.0342C249.242 9.0342 248.718 9.15738 248.257 9.40376C247.801 9.64489 247.439 9.98038 247.172 10.4102C246.91 10.8348 246.779 11.3197 246.779 11.8649V19.5078H244.923Z"
    stroke="#222222"
    stroke-opacity="0.64"
    stroke-width="0.358031"
    mask="url(#path-15-outside-1_3215_1769)"
  ></path>
  <path
    d="M261.301 10.135L259.634 10.6068C259.529 10.329 259.375 10.059 259.17 9.79691C258.971 9.52957 258.698 9.3094 258.353 9.13641C258.007 8.96343 257.564 8.87694 257.024 8.87694C256.285 8.87694 255.669 9.0473 255.176 9.38803C254.688 9.72352 254.445 10.1507 254.445 10.6697C254.445 11.131 254.612 11.4953 254.948 11.7627C255.283 12.03 255.808 12.2528 256.52 12.431L258.313 12.8714C259.393 13.1335 260.198 13.5345 260.727 14.0744C261.257 14.6091 261.521 15.2984 261.521 16.1424C261.521 16.8343 261.322 17.4529 260.924 17.9981C260.531 18.5432 259.98 18.9731 259.272 19.2876C258.565 19.6021 257.742 19.7594 256.803 19.7594C255.572 19.7594 254.552 19.492 253.745 18.9573C252.937 18.4227 252.426 17.6416 252.211 16.6142L253.973 16.1738C254.141 16.8238 254.458 17.3113 254.924 17.6364C255.396 17.9614 256.012 18.1239 256.772 18.1239C257.637 18.1239 258.324 17.9404 258.832 17.5734C259.346 17.2013 259.603 16.7557 259.603 16.2367C259.603 15.8174 259.456 15.4662 259.162 15.1831C258.869 14.8948 258.418 14.6799 257.81 14.5383L255.797 14.0665C254.691 13.8044 253.878 13.3982 253.359 12.8478C252.846 12.2921 252.589 11.5975 252.589 10.7641C252.589 10.0826 252.78 9.47977 253.163 8.95557C253.551 8.43136 254.078 8.01986 254.743 7.72107C255.414 7.42227 256.174 7.27288 257.024 7.27288C258.219 7.27288 259.157 7.53498 259.839 8.05918C260.525 8.58338 261.013 9.27533 261.301 10.135Z"
    stroke="#222222"
    stroke-opacity="0.64"
    stroke-width="0.358031"
    mask="url(#path-15-outside-1_3215_1769)"
  ></path>
</svg>
